<svg width="100" height="24" viewBox="0 0 100 24" fill="none" xmlns="http://www.w3.org/2000/svg">
<path d="M1.55876 16.8088V1.43184H5.35033V16.8088H1.55876ZM4.92905 16.8088V13.607H11.4169V16.8088H4.92905ZM4.92905 10.5948V7.39303H10.9745V10.5948H4.92905ZM4.92905 4.63361V1.43184H11.2905V4.63361H4.92905ZM13.0135 16.8088V5.18128H16.0467V10.1946H15.8782C15.8782 8.9869 16.0257 7.98986 16.3206 7.20345C16.6295 6.40301 17.0789 5.80619 17.6687 5.41299C18.2585 5.00575 18.9817 4.80212 19.8383 4.80212H20.0068C20.8775 4.80212 21.6007 5.00575 22.1764 5.41299C22.7662 5.80619 23.2086 6.40301 23.5035 7.20345C23.8124 7.98986 23.9669 8.9869 23.9669 10.1946H23.0822C23.0822 8.9869 23.2296 7.98986 23.5245 7.20345C23.8335 6.40301 24.2829 5.80619 24.8727 5.41299C25.4625 5.00575 26.1857 4.80212 27.0423 4.80212H27.2108C28.0815 4.80212 28.8117 5.00575 29.4015 5.41299C30.0053 5.80619 30.4617 6.40301 30.7707 7.20345C31.0937 7.98986 31.2551 8.9869 31.2551 10.1946V16.8088H27.4214V10.0893C27.4214 9.55564 27.274 9.11328 26.9791 8.76221C26.6982 8.3971 26.291 8.21454 25.7574 8.21454C25.2237 8.21454 24.8024 8.3971 24.4935 8.76221C24.1986 9.11328 24.0512 9.56968 24.0512 10.1314V16.8088H20.2175V10.0893C20.2175 9.55564 20.07 9.11328 19.7751 8.76221C19.4942 8.3971 19.087 8.21454 18.5534 8.21454C18.0197 8.21454 17.5985 8.3971 17.2895 8.76221C16.9946 9.11328 16.8472 9.56968 16.8472 10.1314V16.8088H13.0135ZM49.9858 17.1879C48.3006 17.1879 46.9736 16.8439 46.0046 16.1558C45.0356 15.4536 44.5161 14.4706 44.4458 13.2068H47.8161C47.8723 13.5579 48.09 13.8598 48.4691 14.1125C48.8483 14.3653 49.3819 14.4917 50.07 14.4917C50.5615 14.4917 50.9828 14.4215 51.3339 14.2811C51.699 14.1266 51.8815 13.8808 51.8815 13.5438C51.8815 13.2489 51.7411 13.0102 51.4603 12.8276C51.1794 12.631 50.6668 12.4976 49.9226 12.4274L49.1221 12.3431C47.6336 12.1887 46.5382 11.7814 45.8361 11.1214C45.1339 10.4614 44.7829 9.63287 44.7829 8.63583C44.7829 7.77921 44.9935 7.07707 45.4148 6.5294C45.8361 5.96768 46.4189 5.5464 47.1631 5.26554C47.9074 4.98468 48.757 4.84425 49.7119 4.84425C51.2707 4.84425 52.5275 5.1883 53.4824 5.8764C54.4373 6.55046 54.9429 7.52644 54.9991 8.80434H51.6288C51.5726 8.45327 51.383 8.15837 51.06 7.91964C50.737 7.66687 50.2736 7.54048 49.6698 7.54048C49.2345 7.54048 48.8764 7.61772 48.5955 7.77219C48.3287 7.92666 48.1953 8.14433 48.1953 8.42518C48.1953 8.72008 48.3217 8.93775 48.5744 9.07818C48.8413 9.21861 49.2625 9.32393 49.8383 9.39414L50.6387 9.4784C52.1273 9.63287 53.2718 10.0471 54.0722 10.7212C54.8867 11.3812 55.294 12.2519 55.294 13.3332C55.294 14.1336 55.0763 14.8217 54.641 15.3975C54.2197 15.9732 53.6088 16.4156 52.8084 16.7245C52.022 17.0335 51.0811 17.1879 49.9858 17.1879ZM61.8981 16.9773C60.6343 16.9773 59.6232 16.8228 58.8649 16.5139C58.1206 16.2049 57.5799 15.6924 57.2429 14.9762C56.9059 14.26 56.7374 13.291 56.7374 12.0693L56.7584 2.14802H60.2972L60.2762 12.1746C60.2762 12.6942 60.4096 13.0944 60.6764 13.3753C60.9572 13.6421 61.3575 13.7755 61.877 13.7755H63.4779V16.9773H61.8981ZM55.0522 7.96177V5.18128H63.4779V7.96177H55.0522ZM65.2378 16.8088V5.18128H69.0715V16.8088H65.2378ZM63.7633 7.96177V5.18128H69.0715V7.96177H63.7633ZM66.8176 4.25445C66.1155 4.25445 65.5959 4.07892 65.2589 3.72784C64.9359 3.36273 64.7744 2.89932 64.7744 2.3376C64.7744 1.77589 64.9359 1.31949 65.2589 0.968421C65.5959 0.603306 66.1084 0.420748 66.7965 0.420748C67.4987 0.420748 68.0113 0.603306 68.3342 0.968421C68.6572 1.31949 68.8187 1.77589 68.8187 2.3376C68.8187 2.89932 68.6572 3.36273 68.3342 3.72784C68.0113 4.07892 67.5057 4.25445 66.8176 4.25445ZM76.3555 17.2301C75.3444 17.2301 74.4667 17.0686 73.7224 16.7456C72.9782 16.4086 72.3532 15.9592 71.8477 15.3975C71.3562 14.8358 70.9841 14.1968 70.7313 13.4806C70.4926 12.7644 70.3732 12.0202 70.3732 11.2478V10.8265C70.3732 10.012 70.4996 9.23967 70.7524 8.50944C71.0192 7.77921 71.4054 7.13324 71.9109 6.57153C72.4164 6.00981 73.0413 5.56746 73.7856 5.24447C74.5299 4.92149 75.3865 4.76 76.3555 4.76C77.4227 4.76 78.3636 4.97064 79.1781 5.39192C79.9926 5.81321 80.6385 6.39599 81.116 7.14026C81.6075 7.87049 81.8813 8.71306 81.9375 9.66798H78.1881C78.1459 9.20456 77.9704 8.81136 77.6614 8.48838C77.3665 8.16539 76.9312 8.0039 76.3555 8.0039C75.864 8.0039 75.4567 8.13028 75.1337 8.38306C74.8248 8.63583 74.5931 8.9869 74.4386 9.43627C74.2841 9.88564 74.2069 10.4193 74.2069 11.0372C74.2069 11.6129 74.2701 12.1255 74.3965 12.5749C74.5369 13.0242 74.7616 13.3753 75.0705 13.6281C75.3935 13.8668 75.8218 13.9862 76.3555 13.9862C76.7487 13.9862 77.0787 13.9159 77.3455 13.7755C77.6123 13.6351 77.8229 13.4385 77.9774 13.1857C78.1319 12.9189 78.2302 12.61 78.2723 12.2589H82.0218C81.9656 13.2419 81.6847 14.1055 81.1792 14.8498C80.6877 15.5941 80.0277 16.1768 79.1991 16.5981C78.3706 17.0194 77.4227 17.2301 76.3555 17.2301ZM90.1585 16.8088V13.3964H89.5266V9.75224C89.5266 9.21861 89.4002 8.82541 89.1474 8.57263C88.9087 8.30582 88.5085 8.17241 87.9468 8.17241C87.6799 8.17241 87.2867 8.17943 86.7671 8.19348C86.2476 8.20752 85.6999 8.22858 85.1241 8.25667C84.5484 8.28476 84.0218 8.31284 83.5443 8.34093V5.13915C83.8813 5.11107 84.2816 5.08298 84.745 5.0549C85.2084 5.02681 85.6858 5.00575 86.1773 4.9917C86.6829 4.97766 87.1463 4.97064 87.5676 4.97064C88.7612 4.97064 89.7723 5.14617 90.6009 5.49725C91.4434 5.84832 92.0824 6.37493 92.5177 7.07707C92.9671 7.77921 93.1918 8.67093 93.1918 9.75224V16.8088H90.1585ZM86.4722 17.1037C85.6578 17.1037 84.9346 16.9562 84.3026 16.6613C83.6707 16.3664 83.1722 15.9451 82.8071 15.3975C82.456 14.8358 82.2805 14.1687 82.2805 13.3964C82.2805 12.5257 82.5122 11.8236 82.9756 11.2899C83.439 10.7423 84.0779 10.342 84.8924 10.0893C85.7069 9.83649 86.6408 9.71011 87.694 9.71011H89.9479V11.6902H87.694C87.1744 11.6902 86.7742 11.8236 86.4933 12.0904C86.2125 12.3431 86.072 12.6872 86.072 13.1225C86.072 13.5438 86.2125 13.8879 86.4933 14.1547C86.7742 14.4074 87.1744 14.5338 87.694 14.5338C88.031 14.5338 88.3259 14.4777 88.5787 14.3653C88.8455 14.2389 89.0632 14.0283 89.2317 13.7334C89.4002 13.4385 89.4985 13.0312 89.5266 12.5117L90.4113 13.3542C90.3411 14.1547 90.1445 14.8358 89.8215 15.3975C89.5125 15.9451 89.0772 16.3664 88.5155 16.6613C87.9678 16.9562 87.2867 17.1037 86.4722 17.1037Z" fill="white"/>
<rect x="94.4568" y="11.5649" width="5.54324" height="5.54324" rx="2.77162" fill="#00FF2C"/>
<path d="M37.8044 17.0994C38.7874 17.0994 39.6581 16.9309 40.4164 16.5939C41.1747 16.2569 41.8136 15.8005 42.3332 15.2247C42.8528 14.649 43.253 14.003 43.5339 13.2868C43.8007 12.5706 43.9341 11.8334 43.9341 11.0751V10.6538C43.9341 9.86737 43.8007 9.11608 43.5339 8.39989C43.253 7.66966 42.8598 7.02369 42.3543 6.46197C41.8347 5.90026 41.2028 5.45791 40.4585 5.13492C39.7142 4.79789 38.8717 4.62938 37.9308 4.62938C36.681 4.62938 35.6207 4.91024 34.7501 5.47195C33.8794 6.03367 33.2124 6.77794 32.749 7.70477C32.2856 8.61755 32.0538 9.6146 32.0538 10.6959V11.9176H42.3332V9.85333H34.2656L35.5926 10.7802C35.5926 10.1201 35.6839 9.56545 35.8665 9.11608C36.035 8.65266 36.2948 8.30159 36.6459 8.06286C36.9829 7.82413 37.4112 7.70477 37.9308 7.70477C38.4363 7.70477 38.8787 7.82413 39.2578 8.06286C39.623 8.28755 39.9038 8.63862 40.1004 9.11608C40.297 9.57949 40.3953 10.1693 40.3953 10.8855C40.3953 11.5315 40.304 12.0932 40.1215 12.5706C39.9389 13.034 39.6581 13.3921 39.2789 13.6449C38.8997 13.8977 38.4082 14.0241 37.8044 14.0241C37.2708 14.0241 36.8354 13.9328 36.4984 13.7502C36.1473 13.5677 35.9016 13.3219 35.7612 13.013H32.2645C32.433 13.7994 32.77 14.5015 33.2756 15.1194C33.7671 15.7373 34.399 16.2218 35.1714 16.5728C35.9297 16.9239 36.8074 17.0994 37.8044 17.0994Z" fill="white"/>
<path d="M2.33551 22.2806V18.6018H4.46947V18.9036H2.67141V20.2885H4.3563V20.5903H2.67141V21.9788H4.50539V22.2806H2.33551ZM9.39181 20.5526V20.8543H7.86139V20.5526H9.39181ZM13.9028 22.3381C13.6561 22.3381 13.4412 22.2764 13.2579 22.153C13.0759 22.0297 12.9346 21.8609 12.834 21.6465C12.7334 21.4321 12.6831 21.1879 12.6831 20.9136C12.6831 20.637 12.734 20.3909 12.8358 20.1754C12.9388 19.9598 13.0813 19.791 13.2633 19.6688C13.4453 19.5455 13.6567 19.4838 13.8974 19.4838C14.0818 19.4838 14.2489 19.5197 14.3986 19.5916C14.5483 19.6622 14.6716 19.7622 14.7686 19.8915C14.8668 20.0197 14.9285 20.1694 14.9536 20.3406H14.6303C14.5968 20.1849 14.5159 20.052 14.3878 19.9418C14.2609 19.8305 14.0992 19.7748 13.9028 19.7748C13.7268 19.7748 13.5711 19.8227 13.4358 19.9185C13.3005 20.0131 13.1945 20.1454 13.1178 20.3155C13.0424 20.4843 13.0047 20.6801 13.0047 20.9028C13.0047 21.1268 13.0418 21.325 13.116 21.4974C13.1903 21.6687 13.2945 21.8028 13.4286 21.8998C13.5639 21.9968 13.722 22.0453 13.9028 22.0453C14.0249 22.0453 14.1363 22.0225 14.2369 21.977C14.3387 21.9303 14.4237 21.8644 14.492 21.7794C14.5614 21.6944 14.6081 21.5932 14.6321 21.4759H14.9554C14.9315 21.6423 14.8722 21.7908 14.7776 21.9213C14.6842 22.0507 14.5626 22.1524 14.4129 22.2267C14.2644 22.3009 14.0944 22.3381 13.9028 22.3381ZM19.3434 22.3381C19.1051 22.3381 18.8943 22.2776 18.7111 22.1566C18.5291 22.0357 18.3865 21.8686 18.2836 21.6555C18.1806 21.4411 18.1291 21.1938 18.1291 20.9136C18.1291 20.631 18.1806 20.3825 18.2836 20.1682C18.3865 19.9526 18.5291 19.785 18.7111 19.6652C18.8943 19.5443 19.1051 19.4838 19.3434 19.4838C19.5817 19.4838 19.7918 19.5443 19.9738 19.6652C20.1559 19.7862 20.2984 19.9538 20.4014 20.1682C20.5055 20.3825 20.5576 20.631 20.5576 20.9136C20.5576 21.1938 20.5061 21.4411 20.4032 21.6555C20.3002 21.8686 20.1571 22.0357 19.9738 22.1566C19.7918 22.2776 19.5817 22.3381 19.3434 22.3381ZM19.3434 22.0453C19.535 22.0453 19.6972 21.9938 19.8301 21.8908C19.9631 21.7878 20.0637 21.6507 20.1319 21.4794C20.2014 21.3082 20.2361 21.1196 20.2361 20.9136C20.2361 20.7077 20.2014 20.5184 20.1319 20.346C20.0637 20.1736 19.9631 20.0352 19.8301 19.9311C19.6972 19.8269 19.535 19.7748 19.3434 19.7748C19.153 19.7748 18.9907 19.8269 18.8566 19.9311C18.7236 20.0352 18.6225 20.1736 18.553 20.346C18.4847 20.5184 18.4506 20.7077 18.4506 20.9136C18.4506 21.1196 18.4847 21.3082 18.553 21.4794C18.6225 21.6507 18.7236 21.7878 18.8566 21.8908C18.9895 21.9938 19.1518 22.0453 19.3434 22.0453ZM23.8898 22.2806V19.5215H24.2006V19.9454H24.2293C24.2844 19.8029 24.376 19.691 24.5041 19.6095C24.6335 19.5269 24.7886 19.4856 24.9694 19.4856C25.1598 19.4856 25.3161 19.5305 25.4382 19.6203C25.5615 19.7089 25.6538 19.8311 25.7148 19.9868H25.7382C25.8005 19.8335 25.9016 19.7119 26.0417 19.6221C26.1831 19.5311 26.3543 19.4856 26.5555 19.4856C26.8117 19.4856 27.0141 19.5664 27.1626 19.7281C27.3111 19.8886 27.3854 20.1233 27.3854 20.4322V22.2806H27.0656V20.4322C27.0656 20.2143 27.0099 20.0508 26.8986 19.9418C26.7872 19.8329 26.6405 19.7784 26.4585 19.7784C26.2477 19.7784 26.0855 19.843 25.9717 19.9724C25.8579 20.1017 25.801 20.2658 25.801 20.4646V22.2806H25.4741V20.4035C25.4741 20.2167 25.422 20.0658 25.3179 19.9508C25.2137 19.8359 25.067 19.7784 24.8778 19.7784C24.7508 19.7784 24.6365 19.8095 24.5347 19.8718C24.4341 19.9341 24.3545 20.0209 24.2958 20.1322C24.2383 20.2424 24.2096 20.3694 24.2096 20.5131V22.2806H23.8898ZM30.8621 22.2806V19.5215H31.1729V19.9454H31.2016C31.2567 19.8029 31.3483 19.691 31.4765 19.6095C31.6058 19.5269 31.7609 19.4856 31.9417 19.4856C32.1321 19.4856 32.2884 19.5305 32.4105 19.6203C32.5339 19.7089 32.6261 19.8311 32.6872 19.9868H32.7105C32.7728 19.8335 32.874 19.7119 33.0141 19.6221C33.1554 19.5311 33.3266 19.4856 33.5278 19.4856C33.7841 19.4856 33.9864 19.5664 34.1349 19.7281C34.2834 19.8886 34.3577 20.1233 34.3577 20.4322V22.2806H34.0379V20.4322C34.0379 20.2143 33.9823 20.0508 33.8709 19.9418C33.7595 19.8329 33.6128 19.7784 33.4308 19.7784C33.22 19.7784 33.0578 19.843 32.944 19.9724C32.8303 20.1017 32.7734 20.2658 32.7734 20.4646V22.2806H32.4465V20.4035C32.4465 20.2167 32.3944 20.0658 32.2902 19.9508C32.186 19.8359 32.0393 19.7784 31.8501 19.7784C31.7232 19.7784 31.6088 19.8095 31.507 19.8718C31.4064 19.9341 31.3268 20.0209 31.2681 20.1322C31.2106 20.2424 31.1819 20.3694 31.1819 20.5131V22.2806H30.8621ZM38.95 22.3381C38.6925 22.3381 38.4698 22.2782 38.2817 22.1584C38.0937 22.0375 37.9482 21.8704 37.8452 21.6573C37.7435 21.4429 37.6926 21.1962 37.6926 20.9172C37.6926 20.6394 37.7435 20.3927 37.8452 20.1772C37.9482 19.9604 38.0901 19.791 38.271 19.6688C38.453 19.5455 38.6631 19.4838 38.9015 19.4838C39.0511 19.4838 39.1954 19.5113 39.3344 19.5664C39.4733 19.6203 39.5978 19.7035 39.708 19.8161C39.8193 19.9275 39.9074 20.0682 39.972 20.2382C40.0367 20.4071 40.069 20.6071 40.069 20.8382V20.9963H37.9135V20.7142H39.7421C39.7421 20.537 39.7062 20.3777 39.6343 20.2364C39.5637 20.0939 39.4649 19.9814 39.3379 19.8987C39.2122 19.8161 39.0667 19.7748 38.9015 19.7748C38.7266 19.7748 38.5727 19.8215 38.4398 19.9149C38.3069 20.0083 38.2027 20.1316 38.1273 20.2849C38.053 20.4382 38.0153 20.6059 38.0141 20.7879V20.9567C38.0141 21.1759 38.0518 21.3675 38.1273 21.5315C38.2039 21.6944 38.3123 21.8207 38.4524 21.9105C38.5925 22.0004 38.7583 22.0453 38.95 22.0453C39.0805 22.0453 39.1948 22.0249 39.293 21.9842C39.3924 21.9435 39.4757 21.889 39.5427 21.8207C39.611 21.7513 39.6625 21.6752 39.6972 21.5926L40.0008 21.6914C39.9589 21.8076 39.89 21.9147 39.7942 22.0129C39.6996 22.1111 39.581 22.1902 39.4385 22.25C39.2972 22.3087 39.1344 22.3381 38.95 22.3381ZM43.4039 22.2806V19.5215H43.7147V19.9454H43.738C43.7931 19.8065 43.8889 19.6946 44.0254 19.6095C44.1631 19.5233 44.3188 19.4802 44.4924 19.4802C44.5188 19.4802 44.5481 19.4808 44.5805 19.482C44.6128 19.4832 44.6397 19.4844 44.6613 19.4856V19.8107C44.6469 19.8083 44.6218 19.8047 44.5859 19.7999C44.5499 19.7951 44.511 19.7928 44.4691 19.7928C44.3254 19.7928 44.1973 19.8233 44.0847 19.8844C43.9733 19.9442 43.8853 20.0275 43.8206 20.134C43.756 20.2406 43.7236 20.3622 43.7236 20.4987V22.2806H43.4039ZM48.831 22.3381C48.5843 22.3381 48.3694 22.2764 48.1861 22.153C48.0041 22.0297 47.8628 21.8609 47.7622 21.6465C47.6616 21.4321 47.6113 21.1879 47.6113 20.9136C47.6113 20.637 47.6622 20.3909 47.764 20.1754C47.867 19.9598 48.0095 19.791 48.1915 19.6688C48.3736 19.5455 48.5849 19.4838 48.8256 19.4838C49.01 19.4838 49.1771 19.5197 49.3268 19.5916C49.4765 19.6622 49.5998 19.7622 49.6968 19.8915C49.795 20.0197 49.8567 20.1694 49.8818 20.3406H49.5585C49.525 20.1849 49.4441 20.052 49.316 19.9418C49.1891 19.8305 49.0274 19.7748 48.831 19.7748C48.655 19.7748 48.4993 19.8227 48.364 19.9185C48.2287 20.0131 48.1227 20.1454 48.046 20.3155C47.9706 20.4843 47.9329 20.6801 47.9329 20.9028C47.9329 21.1268 47.97 21.325 48.0442 21.4974C48.1185 21.6687 48.2227 21.8028 48.3568 21.8998C48.4921 21.9968 48.6502 22.0453 48.831 22.0453C48.9531 22.0453 49.0645 22.0225 49.1651 21.977C49.2669 21.9303 49.3519 21.8644 49.4202 21.7794C49.4896 21.6944 49.5363 21.5932 49.5603 21.4759H49.8836C49.8597 21.6423 49.8004 21.7908 49.7058 21.9213C49.6124 22.0507 49.4908 22.1524 49.3411 22.2267C49.1926 22.3009 49.0226 22.3381 48.831 22.3381ZM54.3147 22.3381C54.0572 22.3381 53.8345 22.2782 53.6465 22.1584C53.4584 22.0375 53.313 21.8704 53.21 21.6573C53.1082 21.4429 53.0573 21.1962 53.0573 20.9172C53.0573 20.6394 53.1082 20.3927 53.21 20.1772C53.313 19.9604 53.4549 19.791 53.6357 19.6688C53.8177 19.5455 54.0279 19.4838 54.2662 19.4838C54.4159 19.4838 54.5602 19.5113 54.6991 19.5664C54.838 19.6203 54.9625 19.7035 55.0727 19.8161C55.1841 19.9275 55.2721 20.0682 55.3367 20.2382C55.4014 20.4071 55.4337 20.6071 55.4337 20.8382V20.9963H53.2782V20.7142H55.1068C55.1068 20.537 55.0709 20.3777 54.999 20.2364C54.9284 20.0939 54.8296 19.9814 54.7027 19.8987C54.5769 19.8161 54.4314 19.7748 54.2662 19.7748C54.0913 19.7748 53.9375 19.8215 53.8045 19.9149C53.6716 20.0083 53.5674 20.1316 53.492 20.2849C53.4177 20.4382 53.38 20.6059 53.3788 20.7879V20.9567C53.3788 21.1759 53.4165 21.3675 53.492 21.5315C53.5686 21.6944 53.677 21.8207 53.8171 21.9105C53.9572 22.0004 54.1231 22.0453 54.3147 22.0453C54.4452 22.0453 54.5596 22.0249 54.6578 21.9842C54.7571 21.9435 54.8404 21.889 54.9074 21.8207C54.9757 21.7513 55.0272 21.6752 55.0619 21.5926L55.3655 21.6914C55.3236 21.8076 55.2547 21.9147 55.1589 22.0129C55.0643 22.1111 54.9458 22.1902 54.8033 22.25C54.6619 22.3087 54.4991 22.3381 54.3147 22.3381ZM62.8934 22.2806H62.5414L63.8796 18.6018H64.2388L65.577 22.2806H65.225L64.0718 19.0383H64.0466L62.8934 22.2806ZM63.1467 20.8705H64.9717V21.1723H63.1467V20.8705ZM69.824 23.3727C69.636 23.3727 69.4713 23.3482 69.33 23.2991C69.1887 23.2512 69.0696 23.1853 68.9726 23.1015C68.8756 23.0176 68.8001 22.9236 68.7462 22.8195L69.0085 22.647C69.048 22.7165 69.1007 22.7847 69.1666 22.8518C69.2336 22.9189 69.3204 22.9745 69.427 23.0188C69.5348 23.0632 69.6671 23.0853 69.824 23.0853C70.0683 23.0853 70.2653 23.0242 70.415 22.9021C70.5658 22.7799 70.6413 22.5901 70.6413 22.3327V21.7112H70.6125C70.5754 21.795 70.5221 21.8788 70.4527 21.9626C70.3832 22.0453 70.2922 22.1141 70.1796 22.1692C70.0683 22.2243 69.93 22.2518 69.7647 22.2518C69.5444 22.2518 69.3486 22.1974 69.1773 22.0884C69.0073 21.9794 68.8732 21.8237 68.775 21.6213C68.678 21.4178 68.6295 21.1753 68.6295 20.8939C68.6295 20.6148 68.6768 20.3694 68.7714 20.1574C68.8672 19.9454 69.0007 19.7802 69.1719 19.6616C69.3432 19.5431 69.5426 19.4838 69.7701 19.4838C69.9389 19.4838 70.0791 19.5137 70.1904 19.5736C70.3018 19.6323 70.391 19.7053 70.4581 19.7928C70.5263 19.8802 70.5796 19.9652 70.6179 20.0478H70.6503V19.5215H70.9628V22.3524C70.9628 22.5859 70.9131 22.7781 70.8137 22.929C70.7143 23.0799 70.579 23.1913 70.4078 23.2631C70.2365 23.3362 70.0419 23.3727 69.824 23.3727ZM69.8024 21.959C69.9797 21.959 70.1311 21.9165 70.2569 21.8315C70.3826 21.7453 70.479 21.6219 70.5461 21.4615C70.6131 21.301 70.6467 21.11 70.6467 20.8885C70.6467 20.6729 70.6137 20.4819 70.5479 20.3155C70.482 20.1478 70.3862 20.0161 70.2605 19.9203C70.1359 19.8233 69.9833 19.7748 69.8024 19.7748C69.618 19.7748 69.4623 19.8245 69.3354 19.9239C69.2085 20.0233 69.1127 20.1574 69.048 20.3262C68.9833 20.4939 68.951 20.6813 68.951 20.8885C68.951 21.0992 68.9839 21.2854 69.0498 21.4471C69.1157 21.6076 69.2121 21.7333 69.339 21.8243C69.4659 21.9141 69.6204 21.959 69.8024 21.959ZM75.5551 22.3381C75.2976 22.3381 75.0749 22.2782 74.8869 22.1584C74.6989 22.0375 74.5534 21.8704 74.4504 21.6573C74.3486 21.4429 74.2977 21.1962 74.2977 20.9172C74.2977 20.6394 74.3486 20.3927 74.4504 20.1772C74.5534 19.9604 74.6953 19.791 74.8761 19.6688C75.0581 19.5455 75.2683 19.4838 75.5066 19.4838C75.6563 19.4838 75.8006 19.5113 75.9395 19.5664C76.0784 19.6203 76.2029 19.7035 76.3131 19.8161C76.4245 19.9275 76.5125 20.0682 76.5772 20.2382C76.6418 20.4071 76.6742 20.6071 76.6742 20.8382V20.9963H74.5186V20.7142H76.3472C76.3472 20.537 76.3113 20.3777 76.2395 20.2364C76.1688 20.0939 76.07 19.9814 75.9431 19.8987C75.8173 19.8161 75.6718 19.7748 75.5066 19.7748C75.3318 19.7748 75.1779 19.8215 75.0449 19.9149C74.912 20.0083 74.8078 20.1316 74.7324 20.2849C74.6582 20.4382 74.6204 20.6059 74.6192 20.7879V20.9567C74.6192 21.1759 74.657 21.3675 74.7324 21.5315C74.809 21.6944 74.9174 21.8207 75.0575 21.9105C75.1976 22.0004 75.3635 22.0453 75.5551 22.0453C75.6856 22.0453 75.8 22.0249 75.8982 21.9842C75.9976 21.9435 76.0808 21.889 76.1479 21.8207C76.2161 21.7513 76.2676 21.6752 76.3023 21.5926L76.6059 21.6914C76.564 21.8076 76.4951 21.9147 76.3993 22.0129C76.3047 22.1111 76.1862 22.1902 76.0437 22.25C75.9024 22.3087 75.7395 22.3381 75.5551 22.3381ZM80.3288 20.5562V22.2806H80.0091V19.5215H80.3198V19.9544H80.3485C80.4132 19.8131 80.5138 19.6999 80.6503 19.6149C80.788 19.5287 80.9581 19.4856 81.1605 19.4856C81.3461 19.4856 81.5089 19.5245 81.649 19.6023C81.7903 19.679 81.8999 19.7922 81.9778 19.9418C82.0568 20.0915 82.0963 20.2753 82.0963 20.4933V22.2806H81.7766V20.5131C81.7766 20.2867 81.7131 20.1077 81.5862 19.976C81.4604 19.8442 81.2916 19.7784 81.0796 19.7784C80.9347 19.7784 80.806 19.8095 80.6934 19.8718C80.5809 19.9341 80.4916 20.0239 80.4258 20.1412C80.3611 20.2574 80.3288 20.3957 80.3288 20.5562ZM86.6464 22.3381C86.3997 22.3381 86.1847 22.2764 86.0015 22.153C85.8195 22.0297 85.6782 21.8609 85.5776 21.6465C85.477 21.4321 85.4267 21.1879 85.4267 20.9136C85.4267 20.637 85.4776 20.3909 85.5794 20.1754C85.6824 19.9598 85.8249 19.791 86.0069 19.6688C86.1889 19.5455 86.4003 19.4838 86.641 19.4838C86.8254 19.4838 86.9925 19.5197 87.1421 19.5916C87.2918 19.6622 87.4152 19.7622 87.5122 19.8915C87.6104 20.0197 87.672 20.1694 87.6972 20.3406H87.3739C87.3403 20.1849 87.2595 20.052 87.1314 19.9418C87.0044 19.8305 86.8428 19.7748 86.6464 19.7748C86.4703 19.7748 86.3147 19.8227 86.1793 19.9185C86.044 20.0131 85.938 20.1454 85.8614 20.3155C85.786 20.4843 85.7482 20.6801 85.7482 20.9028C85.7482 21.1268 85.7854 21.325 85.8596 21.4974C85.9339 21.6687 86.038 21.8028 86.1722 21.8998C86.3075 21.9968 86.4655 22.0453 86.6464 22.0453C86.7685 22.0453 86.8799 22.0225 86.9805 21.977C87.0823 21.9303 87.1673 21.8644 87.2355 21.7794C87.305 21.6944 87.3517 21.5932 87.3757 21.4759H87.699C87.675 21.6423 87.6158 21.7908 87.5212 21.9213C87.4277 22.0507 87.3062 22.1524 87.1565 22.2267C87.008 22.3009 86.838 22.3381 86.6464 22.3381ZM91.2373 23.3152C91.1738 23.3152 91.1146 23.3092 91.0595 23.2973C91.0044 23.2853 90.9607 23.2721 90.9283 23.2577L91.0146 22.9757C91.1235 23.0093 91.2205 23.0212 91.3056 23.0117C91.3906 23.0033 91.466 22.965 91.5319 22.8967C91.5977 22.8296 91.6564 22.7267 91.7079 22.5877L91.8085 22.3075L90.7936 19.5215H91.1403L91.9594 21.8585H91.9845L92.8036 19.5215H93.1503L91.9827 22.7171C91.9336 22.85 91.8732 22.9608 91.8013 23.0494C91.7295 23.1392 91.6462 23.2057 91.5516 23.2488C91.4582 23.2931 91.3535 23.3152 91.2373 23.3152Z" fill="white"/>
</svg>
