<svg width="26" height="24" viewBox="0 0 26 24" fill="none" xmlns="http://www.w3.org/2000/svg">
<g clip-path="url(#clip0_20632_2359)">
<path d="M12.9999 2.27734C9.49295 2.27734 6.68479 3.87457 4.64052 5.77561C2.60927 7.65929 1.25076 9.91623 0.608398 11.4657C0.465169 11.8086 0.465169 12.1905 0.608398 12.5334C1.25076 14.0829 2.60927 16.3398 4.64052 18.2235C6.68479 20.1246 9.49295 21.7218 12.9999 21.7218C16.5068 21.7218 19.315 20.1246 21.3593 18.2235C23.3905 16.3355 24.749 14.0829 25.3957 12.5334C25.539 12.1905 25.539 11.8086 25.3957 11.4657C24.749 9.91623 23.3905 7.65929 21.3593 5.77561C19.315 3.87457 16.5068 2.27734 12.9999 2.27734ZM6.74989 11.9996C6.74989 10.342 7.40837 8.75225 8.58047 7.58015C9.75258 6.40805 11.3423 5.74957 12.9999 5.74957C14.6575 5.74957 16.2472 6.40805 17.4193 7.58015C18.5914 8.75225 19.2499 10.342 19.2499 11.9996C19.2499 13.6572 18.5914 15.2469 17.4193 16.419C16.2472 17.5911 14.6575 18.2496 12.9999 18.2496C11.3423 18.2496 9.75258 17.5911 8.58047 16.419C7.40837 15.2469 6.74989 13.6572 6.74989 11.9996ZM12.9999 9.22179C12.9999 10.7539 11.7542 11.9996 10.2221 11.9996C9.91395 11.9996 9.61882 11.9475 9.34104 11.8563C9.10232 11.7782 8.82454 11.9258 8.83323 12.1775C8.84625 12.477 8.88965 12.7765 8.97211 13.076C9.56673 15.2982 11.8541 16.6176 14.0763 16.023C16.2985 15.4284 17.6179 13.1411 17.0233 10.9188C16.5416 9.11762 14.9487 7.90668 13.1778 7.8329C12.9261 7.82422 12.7785 8.09766 12.8567 8.34071C12.9478 8.61849 12.9999 8.91363 12.9999 9.22179Z" fill="#0071B9"/>
</g>
<defs>
<clipPath id="clip0_20632_2359">
<rect width="25" height="22.2222" fill="white" transform="translate(0.5 0.888672)"/>
</clipPath>
</defs>
</svg>
